<svg width="166" height="223" viewBox="0 0 166 223" fill="none" xmlns="http://www.w3.org/2000/svg">
<path d="M82.7929 222.874C68.5874 222.874 55.9962 219.646 45.0193 213.189C34.2576 206.516 25.6482 197.692 19.1912 186.715C12.9494 175.738 8.21425 163.9 4.98574 151.201C1.97246 138.502 0.46582 125.265 0.46582 111.49C0.46582 97.7155 1.97246 84.4786 4.98574 71.7798C8.21425 59.081 12.9494 47.3507 19.1912 36.589C25.6482 25.6121 34.2576 16.8951 45.0193 10.4381C55.9962 3.76582 68.5874 0.429688 82.7929 0.429688C96.7831 0.429688 109.267 3.76582 120.244 10.4381C131.221 16.8951 139.83 25.6121 146.072 36.589C152.529 47.3507 157.264 59.081 160.277 71.7798C163.506 84.4786 165.12 97.7155 165.12 111.49C165.12 125.265 163.506 138.502 160.277 151.201C157.264 163.9 152.529 175.738 146.072 186.715C139.83 197.692 131.221 206.516 120.244 213.189C109.267 219.646 96.7831 222.874 82.7929 222.874ZM50.5078 185.746C59.1171 194.571 69.8788 198.983 82.7929 198.983C95.7069 198.983 106.469 194.571 115.078 185.746C123.687 176.706 129.606 165.945 132.835 153.461C136.063 140.978 137.678 126.987 137.678 111.49C137.678 95.9936 136.063 82.0034 132.835 69.5198C129.606 57.0363 123.687 46.3822 115.078 37.5576C106.469 28.733 95.7069 24.3207 82.7929 24.3207C69.8788 24.3207 59.1171 28.733 50.5078 37.5576C41.8984 46.3822 35.9795 57.0363 32.7509 69.5198C29.5224 82.0034 27.9082 95.9936 27.9082 111.49C27.9082 126.987 29.5224 140.978 32.7509 153.461C35.9795 165.945 41.8984 176.706 50.5078 185.746Z" fill-opacity="1" fill="#FFCF68"/>
</svg>
