<svg width="24" height="24" viewBox="0 0 24 24" fill="none" xmlns="http://www.w3.org/2000/svg">
<path d="M16.6451 13.9114C16.3176 13.5704 15.9225 13.388 15.5037 13.388C15.0884 13.388 14.6899 13.567 14.3488 13.9081L13.2817 14.9718C13.1939 14.9245 13.1061 14.8806 13.0217 14.8367C12.9001 14.7759 12.7853 14.7185 12.6874 14.6577C11.6878 14.0229 10.7794 13.1955 9.90819 12.125C9.48608 11.5915 9.20242 11.1424 8.99643 10.6865C9.27333 10.4332 9.52998 10.1698 9.77987 9.91655C9.87442 9.82199 9.96898 9.72406 10.0635 9.62951C10.7727 8.92036 10.7727 8.00184 10.0635 7.29269L9.14163 6.37079C9.03695 6.26611 8.92889 6.15805 8.82758 6.04999C8.62497 5.84062 8.41222 5.6245 8.19272 5.42188C7.86516 5.0977 7.47344 4.92548 7.06146 4.92548C6.64947 4.92548 6.251 5.0977 5.91331 5.42188C5.90993 5.42526 5.90993 5.42526 5.90655 5.42864L4.7584 6.58692C4.32616 7.01916 4.07964 7.54596 4.02561 8.15718C3.94457 9.14324 4.23498 10.0618 4.45786 10.6628C5.00492 12.1386 5.82213 13.5062 7.04119 14.9718C8.52028 16.7379 10.2999 18.1326 12.3328 19.1152C13.1095 19.4833 14.1462 19.919 15.3045 19.9932C15.3754 19.9966 15.4497 20 15.5172 20C16.2973 20 16.9524 19.7197 17.4657 19.1625C17.4691 19.1558 17.4758 19.1524 17.4792 19.1456C17.6548 18.9329 17.8574 18.7404 18.0702 18.5344C18.2154 18.396 18.364 18.2508 18.5092 18.0988C18.8435 17.751 19.0191 17.3457 19.0191 16.9304C19.0191 16.5117 18.8401 16.1098 18.499 15.7721L16.6451 13.9114ZM17.8541 17.4673C17.8507 17.4673 17.8507 17.4707 17.8541 17.4673C17.7224 17.6091 17.5873 17.7375 17.4421 17.8793C17.2226 18.0887 16.9997 18.3082 16.7903 18.5547C16.4493 18.9194 16.0474 19.0916 15.5206 19.0916C15.47 19.0916 15.4159 19.0916 15.3653 19.0882C14.3623 19.0241 13.4303 18.6324 12.7313 18.298C10.82 17.3728 9.14163 16.0591 7.74697 14.3943C6.59544 13.0064 5.82551 11.7232 5.31559 10.3454C5.00154 9.50457 4.88673 8.84944 4.93738 8.23147C4.97115 7.83637 5.12311 7.50881 5.40339 7.22853L6.55492 6.077C6.72039 5.92166 6.89599 5.83724 7.06821 5.83724C7.28096 5.83724 7.45318 5.96556 7.56124 6.07363C7.56462 6.077 7.56799 6.08038 7.57137 6.08376C7.77736 6.27624 7.97322 6.47548 8.17921 6.68822C8.2839 6.79628 8.39196 6.90435 8.50002 7.01578L9.42192 7.93768C9.77987 8.29563 9.77987 8.62657 9.42192 8.98452C9.32399 9.08245 9.22943 9.18038 9.1315 9.27493C8.84784 9.56535 8.57769 9.8355 8.2839 10.0989C8.27714 10.1057 8.27039 10.109 8.26701 10.1158C7.9766 10.4062 8.03063 10.6899 8.09141 10.8823C8.09479 10.8925 8.09817 10.9026 8.10154 10.9127C8.3413 11.4936 8.679 12.0406 9.19229 12.6924L9.19566 12.6957C10.1277 13.8439 11.1104 14.7388 12.1944 15.4243C12.3328 15.5121 12.4746 15.583 12.6097 15.6505C12.7313 15.7113 12.8461 15.7687 12.944 15.8295C12.9575 15.8363 12.971 15.8464 12.9846 15.8532C13.0994 15.9106 13.2074 15.9376 13.3189 15.9376C13.5992 15.9376 13.7748 15.762 13.8322 15.7046L14.9871 14.5497C15.1019 14.4349 15.2842 14.2964 15.497 14.2964C15.7063 14.2964 15.8786 14.4281 15.9833 14.5429C15.9866 14.5463 15.9866 14.5463 15.99 14.5497L17.8507 16.4103C18.1985 16.7548 18.1985 17.1094 17.8541 17.4673Z" fill="#ECBF61"/>
<path d="M12.6467 7.80594C13.5315 7.95453 14.3352 8.37326 14.9768 9.01488C15.6184 9.65649 16.0338 10.4602 16.1857 11.3449C16.2229 11.5678 16.4154 11.7232 16.6349 11.7232C16.6619 11.7232 16.6855 11.7198 16.7125 11.7164C16.9624 11.6759 17.1279 11.4395 17.0874 11.1896C16.905 10.1191 16.3985 9.1432 15.6252 8.36989C14.8519 7.59657 13.8759 7.09004 12.8054 6.90768C12.5556 6.86716 12.3226 7.03263 12.2787 7.27914C12.2348 7.52566 12.3968 7.76542 12.6467 7.80594Z" fill="#ECBF61"/>
<path d="M19.9819 11.0579C19.6813 9.29519 18.8506 7.69116 17.5741 6.41469C16.2977 5.13821 14.6936 4.3075 12.9309 4.00695C12.6844 3.96305 12.4514 4.1319 12.4075 4.37841C12.3669 4.6283 12.5324 4.86131 12.7823 4.90521C14.3559 5.17198 15.7911 5.91828 16.9325 7.0563C18.0739 8.1977 18.8168 9.63288 19.0836 11.2065C19.1208 11.4294 19.3132 11.5847 19.5327 11.5847C19.5598 11.5847 19.5834 11.5814 19.6104 11.578C19.8569 11.5408 20.0258 11.3045 19.9819 11.0579Z" fill="#ECBF61"/>
</svg>
