<svg width="24" height="24" viewBox="0 0 24 24" fill="none" xmlns="http://www.w3.org/2000/svg">
<path d="M18.6667 6H5.33334C4.59797 6 4 6.59797 4 7.33334V16.6667C4 17.402 4.59797 18 5.33334 18H18.6667C19.402 18 20 17.402 20 16.6667V7.33334C20 6.59797 19.402 6 18.6667 6ZM5.33334 6.66666H18.6667C18.7158 6.66666 18.7591 6.68456 18.8052 6.69469C17.6508 7.75116 13.8232 11.2528 12.4838 12.4596C12.3789 12.554 12.21 12.6667 12 12.6667C11.7901 12.6667 11.6211 12.554 11.516 12.4593C10.1766 11.2527 6.34878 7.75084 5.19463 6.69475C5.24081 6.68463 5.28419 6.66666 5.33334 6.66666ZM4.66666 16.6667V7.33334C4.66666 7.26803 4.68634 7.20878 4.70397 7.14909C5.58747 7.95772 8.25822 10.401 9.98997 11.9757C8.26384 13.4585 5.59241 15.9912 4.70187 16.8404C4.68616 16.7837 4.66666 16.7283 4.66666 16.6667ZM18.6667 17.3333H5.33334C5.28009 17.3333 5.23275 17.3148 5.18303 17.3029C6.10325 16.4257 8.79169 13.8783 10.4875 12.4276C10.7085 12.6282 10.9105 12.811 11.0697 12.9544C11.3444 13.2025 11.666 13.3333 12 13.3333C12.334 13.3333 12.6556 13.2025 12.93 12.9548C13.0893 12.8113 13.2913 12.6282 13.5125 12.4276C15.2084 13.8782 17.8965 16.4253 18.817 17.3029C18.7673 17.3148 18.72 17.3333 18.6667 17.3333ZM19.3333 16.6667C19.3333 16.7283 19.3138 16.7837 19.2982 16.8404C18.4073 15.9908 15.7362 13.4583 14.0101 11.9758C15.7419 10.401 18.4122 7.95797 19.296 7.14903C19.3137 7.20872 19.3333 7.268 19.3333 7.33331V16.6667Z" fill="#ECBF61"/>
</svg>
