<svg width="40" height="40" viewBox="0 0 40 40" fill="none" xmlns="http://www.w3.org/2000/svg">
<g clip-path="url(#clip0)">
<path d="M39.9614 11.7601C39.8676 9.63476 39.524 8.17359 39.0316 6.90748C38.5237 5.56353 37.7423 4.36029 36.7185 3.36003C35.7183 2.34421 34.5071 1.55487 33.1787 1.05489C31.9053 0.562549 30.4518 0.218854 28.3264 0.125146C26.1852 0.0235031 25.5054 0 20.0747 0C14.6439 0 13.9642 0.0235031 11.8309 0.11721C9.70554 0.210918 8.24438 0.554918 6.97857 1.04696C5.63432 1.55487 4.43108 2.33627 3.43083 3.36003C2.41501 4.36029 1.62597 5.57146 1.12569 6.89985C0.633349 8.17359 0.289654 9.62682 0.195947 11.7522C0.0943039 13.8934 0.0708008 14.5732 0.0708008 20.0039C0.0708008 25.4347 0.0943039 26.1144 0.188011 28.2477C0.281718 30.3731 0.625718 31.8342 1.11806 33.1003C1.62597 34.4443 2.41501 35.6475 3.43083 36.6478C4.43108 37.6636 5.64226 38.4529 6.97064 38.9529C8.24438 39.4453 9.69761 39.789 11.8233 39.8827C13.9562 39.9767 14.6363 39.9999 20.0671 39.9999C25.4978 39.9999 26.1776 39.9767 28.3108 39.8827C30.4362 39.789 31.8974 39.4453 33.1632 38.9529C35.8514 37.9136 37.9767 35.7882 39.016 33.1003C39.5081 31.8266 39.8521 30.3731 39.9458 28.2477C40.0395 26.1144 40.063 25.4347 40.063 20.0039C40.063 14.5732 40.0551 13.8934 39.9614 11.7601ZM36.3593 28.0914C36.2732 30.0449 35.9451 31.0998 35.6716 31.8031C34.9995 33.5457 33.6164 34.9287 31.8738 35.6008C31.1706 35.8743 30.1081 36.2024 28.1622 36.2882C26.0524 36.3822 25.4197 36.4054 20.0826 36.4054C14.7456 36.4054 14.1049 36.3822 12.0027 36.2882C10.0492 36.2024 8.99435 35.8743 8.29109 35.6008C7.42391 35.2803 6.63457 34.7724 5.99389 34.1082C5.3297 33.4596 4.82178 32.6782 4.50129 31.811C4.2278 31.1078 3.89967 30.0449 3.8139 28.0994C3.71989 25.9896 3.69669 25.3565 3.69669 20.0195C3.69669 14.6824 3.71989 14.0417 3.8139 11.9399C3.89967 9.98639 4.2278 8.93149 4.50129 8.22823C4.82178 7.36075 5.3297 6.57172 6.00182 5.93072C6.65014 5.26653 7.43154 4.75862 8.29902 4.43843C9.00228 4.16494 10.0651 3.83681 12.0107 3.75073C14.1205 3.65703 14.7535 3.63352 20.0903 3.63352C25.4352 3.63352 26.068 3.65703 28.1701 3.75073C30.1236 3.83681 31.1785 4.16494 31.8818 4.43843C32.749 4.75862 33.5383 5.26653 34.179 5.93072C34.8432 6.57935 35.3511 7.36075 35.6716 8.22823C35.9451 8.93149 36.2732 9.99402 36.3593 11.9399C36.453 14.0497 36.4765 14.6824 36.4765 20.0195C36.4765 25.3565 36.453 25.9816 36.3593 28.0914Z" fill="white"/>
<path d="M20.0746 9.72791C14.4018 9.72791 9.79911 14.3302 9.79911 20.0034C9.79911 25.6765 14.4018 30.2788 20.0746 30.2788C25.7477 30.2788 30.35 25.6765 30.35 20.0034C30.35 14.3302 25.7477 9.72791 20.0746 9.72791ZM20.0746 26.6688C16.3943 26.6688 13.4091 23.6839 13.4091 20.0034C13.4091 16.3228 16.3943 13.3379 20.0746 13.3379C23.7551 13.3379 26.74 16.3228 26.74 20.0034C26.74 23.6839 23.7551 26.6688 20.0746 26.6688Z" fill="white"/>
<path d="M33.155 9.32268C33.155 10.6474 32.0808 11.7215 30.7558 11.7215C29.4311 11.7215 28.3569 10.6474 28.3569 9.32268C28.3569 7.99765 29.4311 6.92383 30.7558 6.92383C32.0808 6.92383 33.155 7.99765 33.155 9.32268Z" fill="white"/>
</g>
<defs>
<clipPath id="clip0">
<rect width="40" height="40" fill="white"/>
</clipPath>
</defs>
</svg>
