<svg width="288" height="98" viewBox="0 0 288 98" fill="none" xmlns="http://www.w3.org/2000/svg">
<path fill-rule="evenodd" clip-rule="evenodd" d="M162.642 84.7684L159.013 84.6914C159.975 82.5667 161.362 79.2538 161.767 72.4929C162.637 72.4593 163.194 72.7094 163.538 73.1672C164.263 74.1318 164.042 76.018 163.808 78.1109C163.544 80.4768 163 82.5447 162.642 84.7684ZM162.465 69.6961C161.581 69.6367 161.464 69.4033 160.176 70.4157C157.323 64.2149 155.106 64.3842 153.856 63.3428C158.314 64.5376 160.071 66.1545 162.465 69.6961ZM144.917 79.9007C142.032 82.3187 138.245 84.8094 134.71 86.9202C129.903 89.7897 123.246 93.4615 118.06 96.0035C117.382 96.3362 115.426 97.2436 113.966 98.0001H147.09C151.103 94.7944 154.148 92.4871 157.203 88.0661L160.682 88.2701C159.207 91.5363 155.475 95.2153 152.523 98.0001H177.972C181.13 87.8471 182.666 78.033 173.051 70.2071C169.672 67.457 165.327 65.1692 160.384 63.4616C157.983 62.6327 147.516 59.3819 145.146 59.5748C158.831 65.195 153.188 72.9688 144.917 79.9007ZM148.24 57.6407C149.716 57.2193 151.551 56.3382 152.885 55.7803C154.479 55.1136 156.037 54.5129 157.688 53.8163C160.643 52.57 159.551 52.6756 162.503 53.917C164.117 54.5959 165.688 55.3307 167.341 56.0596C170.319 57.3721 184.653 63.9897 186.444 64.4553C184.247 62.4984 164.187 47.9161 161.095 45.8023L148.24 57.6407ZM143.205 40.0525C143.352 40.3331 155.667 47.9237 155.667 47.9237L154.238 48.6146L144.19 45.4561L135.899 53.282C135.899 53.282 130.152 47.0353 130.251 47.0353C130.349 47.0353 143.205 40.0525 143.205 40.0525ZM143.894 65.8509L125.008 43.7499L101.556 67.791L122.199 56.212L126.062 62.1174L131.755 58.7738L143.894 65.8509Z" fill="#ECBF61"/>
<path d="M284.005 13.1959H285.653L288 17.1785L285.653 21.1765H284.005L285.398 17.1785L284.005 13.1959ZM280.125 13.1959H281.784L284.12 17.1785L281.784 21.1765H280.125L281.518 17.1785L280.125 13.1959ZM276.574 14.6802L271.478 14.8745C271.398 13.6686 271.204 12.7571 270.89 12.1406C270.575 11.5244 270.04 11.2161 269.298 11.2161C267.432 11.2161 266.502 13.1658 266.502 17.0588C266.502 19.317 266.73 20.9046 267.178 21.8025C267.633 22.7072 268.308 23.156 269.198 23.156C270.589 23.156 271.344 21.9233 271.478 19.4575L276.574 19.7926C276.12 25.012 273.538 27.6186 268.83 27.6186C266.288 27.6186 264.342 26.7608 262.991 25.0389C261.64 23.3169 260.965 20.7576 260.965 17.3538C260.965 13.9834 261.674 11.4104 263.085 9.64153C264.503 7.8794 266.489 6.99507 269.044 6.99507C273.659 6.99507 276.173 9.55469 276.574 14.6802ZM247.926 24.8446V27.2164H242.388V7.39695H247.926L247.906 16.9115L252.34 9.94977V7.39695H257.878V27.2164H252.34V17.9768L251.444 19.4643L247.926 24.8446ZM228.888 22.955H232.206C232.975 22.955 233.483 22.7674 233.75 22.399C234.011 22.0305 234.145 21.4677 234.145 20.7103C234.145 19.9869 234.005 19.4307 233.73 19.0353C233.456 18.6467 232.948 18.4524 232.206 18.4524H228.888V22.955ZM228.888 15.0755H231.938C232.587 15.0755 233.055 14.935 233.349 14.6533C233.637 14.3787 233.784 13.8629 233.784 13.1259C233.784 12.5764 233.69 12.0872 233.51 11.6585C233.323 11.2297 232.801 11.0151 231.938 11.0151H228.888V15.0755ZM223.03 27.2164V7.39695H233.062C234.299 7.39695 235.289 7.53098 236.031 7.79907C236.767 8.06689 237.429 8.61666 238.011 9.45376C238.593 10.2849 238.88 11.2764 238.88 12.4288C238.88 14.2447 238.057 15.6383 236.412 16.6165C238.459 17.6015 239.482 19.1962 239.482 21.3939C239.482 23.1025 238.987 24.4959 237.99 25.5816C237.001 26.6737 235.616 27.2164 233.857 27.2164H223.03ZM209.443 19.0823C209.443 20.9784 209.596 22.2115 209.897 22.781C210.205 23.3503 210.827 23.6387 211.763 23.6387C212.593 23.6387 213.208 23.2567 213.616 22.4993C214.017 21.7425 214.218 19.8998 214.218 16.9785C214.218 14.5464 214.044 12.8912 213.689 12.027C213.342 11.1624 212.746 10.7337 211.917 10.7337C211.228 10.7337 210.646 11.0086 210.165 11.5512C209.683 12.0939 209.443 13.3536 209.443 15.3301V19.0823ZM204.025 7.39695H209.162V10.3383C210.239 8.18764 211.73 7.11556 213.636 7.11556C215.435 7.11556 216.933 7.92637 218.123 9.54116C219.32 11.1625 219.916 13.635 219.916 16.9652C219.916 20.4493 219.327 23.0757 218.157 24.8446C216.986 26.6135 215.335 27.4979 213.215 27.4979C211.69 27.4979 210.432 26.915 209.443 25.7492V33.9304H204.025V7.39695ZM195.695 14.9551C195.708 14.7204 195.715 14.5464 195.715 14.4124C195.715 11.9062 194.859 10.6534 193.147 10.6534C191.462 10.6534 190.612 12.0872 190.599 14.9551H195.695ZM200.911 18.2112H190.559V19.3034C190.559 21.0791 190.799 22.2584 191.274 22.8613C191.756 23.4575 192.384 23.7592 193.16 23.7592C194.832 23.7592 195.769 22.6334 195.976 20.382L200.911 20.697C200.035 25.3138 197.427 27.6186 193.073 27.6186C190.385 27.6186 188.345 26.7074 186.954 24.8915C185.556 23.0757 184.861 20.6368 184.861 17.5882C184.861 14.1508 185.603 11.5244 187.081 9.71536C188.559 7.8995 190.545 6.99507 193.033 6.99507C195.274 6.99507 197.146 7.79228 198.651 9.39377C200.156 10.995 200.911 13.9364 200.911 18.2112ZM177.439 17.4474L182.857 17.7825C182.663 20.6903 181.74 23.0556 180.095 24.878C178.449 26.7074 176.276 27.6186 173.581 27.6186C170.29 27.6186 167.782 26.3924 166.057 23.9467C164.338 21.501 163.476 18.1309 163.476 13.836C163.476 9.50749 164.332 6.11728 166.044 3.67162C167.756 1.22596 170.297 0 173.668 0C179.245 0 182.281 3.45725 182.776 10.3788L177.4 10.7739C177.259 6.78073 176.015 4.78385 173.675 4.78385C172.444 4.78385 171.467 5.42696 170.745 6.70663C170.016 7.99336 169.655 10.4792 169.655 14.1709C169.655 17.4743 169.989 19.7389 170.658 20.9785C171.32 22.218 172.324 22.8344 173.654 22.8344C175.801 22.8344 177.058 21.0387 177.439 17.4474ZM145.902 0.0803178H149.072C149.621 1.4471 150.724 2.13064 152.383 2.13064C154.035 2.13064 155.138 1.4471 155.693 0.0803178H158.863C157.934 3.35006 155.773 4.98493 152.383 4.98493C149.019 4.98493 146.859 3.35006 145.902 0.0803178ZM150.075 24.8446V27.2164H144.538V7.39695H150.075L150.055 16.9115L154.49 9.94977V7.39695H160.027V27.2164H154.49V17.9768L153.593 19.4643L150.075 24.8446ZM135.726 17.3066C135.726 14.7806 135.552 13.0787 135.211 12.1879C134.863 11.2965 134.268 10.8542 133.412 10.8542C132.576 10.8542 131.981 11.2764 131.62 12.1205C131.252 12.9647 131.071 14.6935 131.071 17.3066C131.071 19.7256 131.225 21.4074 131.539 22.3455C131.847 23.29 132.475 23.7592 133.412 23.7592C134.302 23.7592 134.917 23.29 135.238 22.3588C135.566 21.4207 135.726 19.7389 135.726 17.3066ZM141.424 17.2933C141.424 24.1746 138.756 27.6186 133.412 27.6186C128.055 27.6186 125.373 24.1746 125.373 17.2933C125.373 10.4255 128.055 6.99507 133.412 6.99507C138.756 6.99507 141.424 10.4255 141.424 17.2933ZM112.629 19.0823C112.629 20.9784 112.782 22.2115 113.083 22.781C113.391 23.3503 114.013 23.6387 114.949 23.6387C115.779 23.6387 116.394 23.2567 116.802 22.4993C117.203 21.7425 117.404 19.8998 117.404 16.9785C117.404 14.5464 117.23 12.8912 116.875 12.027C116.528 11.1624 115.932 10.7337 115.103 10.7337C114.414 10.7337 113.832 11.0086 113.351 11.5512C112.869 12.0939 112.629 13.3536 112.629 15.3301V19.0823ZM107.212 7.39695H112.348V10.3383C113.424 8.18764 114.916 7.11556 116.822 7.11556C118.621 7.11556 120.119 7.92637 121.309 9.54116C122.507 11.1625 123.102 13.635 123.102 16.9652C123.102 20.4493 122.513 23.0757 121.343 24.8446C120.172 26.6135 118.521 27.4979 116.4 27.4979C114.876 27.4979 113.618 26.915 112.629 25.7492V33.9304H107.212V7.39695ZM90.5079 7.39695H105.475V11.7792H100.7V27.2164H95.1626V11.7792H90.5079V7.39695ZM83.3741 17.4474L88.7913 17.7825C88.5973 20.6903 87.6746 23.0556 86.0295 24.878C84.3841 26.7074 82.2106 27.6186 79.5154 27.6186C76.225 27.6186 73.7169 26.3924 71.9914 23.9467C70.2729 21.501 69.4103 18.1309 69.4103 13.836C69.4103 9.50749 70.2661 6.11728 71.9781 3.67162C73.6901 1.22596 76.2317 0 79.6024 0C85.1798 0 88.2163 3.45725 88.7111 10.3788L83.334 10.7739C83.1937 6.78073 81.9498 4.78385 79.6089 4.78385C78.3784 4.78385 77.402 5.42696 76.6797 6.70663C75.9509 7.99336 75.5896 10.4792 75.5896 14.1709C75.5896 17.4743 75.924 19.7389 76.5928 20.9785C77.2547 22.218 78.2582 22.8344 79.5888 22.8344C81.7358 22.8344 82.993 21.0387 83.3741 17.4474ZM56.3045 19.0823C56.3045 20.9784 56.4583 22.2115 56.7592 22.781C57.0666 23.3503 57.689 23.6387 58.625 23.6387C59.4544 23.6387 60.0697 23.2567 60.4776 22.4993C60.879 21.7425 61.0797 19.8998 61.0797 16.9785C61.0797 14.5464 60.9055 12.8912 60.5513 12.027C60.2035 11.1624 59.6082 10.7337 58.7789 10.7337C58.0901 10.7337 57.5081 11.0086 57.0268 11.5512C56.5452 12.0939 56.3045 13.3536 56.3045 15.3301V19.0823ZM50.8873 7.39695H56.0233V10.3383C57.1002 8.18764 58.5917 7.11556 60.4976 7.11556C62.2966 7.11556 63.7949 7.92637 64.9852 9.54116C66.1824 11.1625 66.7777 13.635 66.7777 16.9652C66.7777 20.4493 66.1889 23.0757 65.0186 24.8446C63.8482 26.6135 62.1964 27.4979 60.0762 27.4979C58.5516 27.4979 57.2941 26.915 56.3045 25.7492V33.9304H50.8873V7.39695ZM42.0754 17.3066C42.0754 14.7806 41.9013 13.0787 41.56 12.1879C41.2125 11.2965 40.6172 10.8542 39.7611 10.8542C38.9253 10.8542 38.33 11.2764 37.9689 12.1205C37.6011 12.9647 37.4205 14.6935 37.4205 17.3066C37.4205 19.7256 37.5743 21.4074 37.8885 22.3455C38.1962 23.29 38.8248 23.7592 39.7611 23.7592C40.6508 23.7592 41.2659 23.29 41.5868 22.3588C41.9146 21.4207 42.0754 19.7389 42.0754 17.3066ZM47.7734 17.2933C47.7734 24.1746 45.1048 27.6186 39.7611 27.6186C34.4044 27.6186 31.7225 24.1746 31.7225 17.2933C31.7225 10.4255 34.4044 6.99507 39.7611 6.99507C45.1048 6.99507 47.7734 10.4255 47.7734 17.2933ZM16.3096 22.3118H23.6459L20.4226 6.07032H19.6803L16.3096 22.3118ZM10.9526 22.3118L16.7844 0.401881H24.3082L29.5915 22.3118H31.2569V32.6437H26.9231L26.3947 27.2164H14.109L13.6009 32.6437H9.26717V22.3118H10.9526ZM3.99466 12.8041H2.34713L0 16.7867L2.34713 20.785H3.99466L2.60198 16.7867L3.99466 12.8041ZM7.87476 12.8041H6.21611L3.88037 16.7867L6.21611 20.785H7.87476L6.48235 16.7867L7.87476 12.8041Z" fill="#ECBF61"/>
</svg>
