<svg width="100" height="100" viewBox="0 0 100 100" fill="none" xmlns="http://www.w3.org/2000/svg">
<path d="M85.3553 14.6445C75.9115 5.20098 63.3555 0 50 0C36.6443 0 24.0881 5.20098 14.6445 14.6445C5.20078 24.0883 0 36.6445 0 50C0 63.3555 5.20078 75.9115 14.6445 85.3553C24.0883 94.799 36.6443 100 50 100C63.3555 100 75.9115 94.799 85.3553 85.3553C94.799 75.9115 100 63.3555 100 50C100 36.6445 94.799 24.0885 85.3553 14.6445ZM50 94.1406C25.6607 94.1406 5.85938 74.3393 5.85938 50C5.85938 25.6607 25.6607 5.85938 50 5.85938C74.3393 5.85938 94.1406 25.6607 94.1406 50C94.1406 74.3393 74.3393 94.1406 50 94.1406Z" fill="#ECBF61"/>
<path d="M73.8876 33.9568C72.7436 32.8131 70.8886 32.8131 69.7446 33.957L43.8737 59.8279L30.2552 46.2094C29.1112 45.0654 27.2562 45.0654 26.112 46.2094C24.9679 47.3533 24.9679 49.2084 26.112 50.3525L41.802 66.0426C42.3741 66.6147 43.1239 66.9006 43.8735 66.9006C44.6231 66.9006 45.3731 66.6145 45.945 66.0426L73.8876 38.1C75.0317 36.9561 75.0317 35.101 73.8876 33.9568Z" fill="#ECBF61"/>
</svg>
