<svg width="24" height="24" viewBox="0 0 24 24" fill="none" xmlns="http://www.w3.org/2000/svg">
<path d="M11.2432 2C7.2493 2 4 5.2493 4 9.2432C4 14.1998 10.482 21.4763 10.758 21.7836C11.0172 22.0723 11.4698 22.0718 11.7285 21.7836C12.0045 21.4763 18.4865 14.1998 18.4865 9.2432C18.4864 5.2493 15.2371 2 11.2432 2ZM11.2432 20.3488C9.06172 17.7575 5.30437 12.645 5.30437 9.24328C5.30437 5.96851 7.96851 3.30437 11.2432 3.30437C14.518 3.30437 17.1821 5.96851 17.1821 9.24324C17.1821 12.6451 13.4253 17.7566 11.2432 20.3488Z" fill="#ECBF61"/>
<path d="M11.2438 5.59912C9.23437 5.59912 7.59961 7.23393 7.59961 9.24338C7.59961 11.2528 9.23441 12.8876 11.2438 12.8876C13.2532 12.8876 14.888 11.2528 14.888 9.24338C14.888 7.23393 13.2532 5.59912 11.2438 5.59912ZM11.2438 11.5833C9.95359 11.5833 8.90398 10.5336 8.90398 9.24338C8.90398 7.95314 9.95363 6.9035 11.2438 6.9035C12.534 6.9035 13.5837 7.95314 13.5837 9.24338C13.5837 10.5336 12.534 11.5833 11.2438 11.5833Z" fill="#ECBF61"/>
</svg>
