<svg width="80" height="80" viewBox="0 0 80 80" fill="none" xmlns="http://www.w3.org/2000/svg">
<path d="M39.9984 0C24.0226 0 11.0254 12.9972 11.0254 28.9728C11.0254 48.7991 36.9534 77.9052 38.0573 79.1345C39.0941 80.2894 40.9045 80.2874 41.9395 79.1345C43.0434 77.9052 68.9713 48.7991 68.9713 28.9728C68.971 12.9972 55.974 0 39.9984 0ZM39.9984 43.5498C31.9605 43.5498 25.4215 37.0106 25.4215 28.9728C25.4215 20.935 31.9607 14.3959 39.9984 14.3959C48.036 14.3959 54.5751 20.9352 54.5751 28.973C54.5751 37.0108 48.036 43.5498 39.9984 43.5498Z" fill="#ECBF61"/>
<circle cx="40" cy="28.8608" r="14.6835" fill="#ECBF61" fill-opacity="0.4"/>
</svg>
