<svg width="24" height="24" viewBox="0 0 24 24" fill="none" xmlns="http://www.w3.org/2000/svg">
<path d="M16.6449 13.9114C16.3173 13.5703 15.9222 13.3879 15.5035 13.3879C15.0881 13.3879 14.6897 13.5669 14.3486 13.908L13.2815 14.9717C13.1937 14.9244 13.1059 14.8805 13.0215 14.8366C12.8999 14.7759 12.7851 14.7185 12.6871 14.6577C11.6876 14.0228 10.7792 13.1955 9.90795 12.125C9.48583 11.5914 9.20217 11.1423 8.99618 10.6864C9.27309 10.4332 9.52973 10.1698 9.77962 9.91649C9.87418 9.82193 9.96873 9.724 10.0633 9.62945C10.7724 8.9203 10.7724 8.00178 10.0633 7.29263L9.14139 6.37073C9.0367 6.26605 8.92864 6.15799 8.82734 6.04993C8.62472 5.84056 8.41198 5.62444 8.19248 5.42182C7.86492 5.09764 7.47319 4.92542 7.06121 4.92542C6.64923 4.92542 6.25075 5.09764 5.91306 5.42182C5.90969 5.4252 5.90969 5.4252 5.90631 5.42857L4.75816 6.58685C4.32592 7.0191 4.0794 7.5459 4.02537 8.15712C3.94432 9.14318 4.23474 10.0617 4.45761 10.6628C5.00467 12.1385 5.82189 13.5061 7.04095 14.9717C8.52004 16.7378 10.2997 18.1325 12.3326 19.1152C13.1093 19.4833 14.146 19.9189 15.3042 19.9932C15.3752 19.9966 15.4495 19.9999 15.517 19.9999C16.2971 19.9999 16.9522 19.7197 17.4655 19.1625C17.4688 19.1557 17.4756 19.1523 17.479 19.1456C17.6546 18.9328 17.8572 18.7404 18.0699 18.5344C18.2151 18.3959 18.3637 18.2507 18.5089 18.0987C18.8433 17.7509 19.0188 17.3457 19.0188 16.9303C19.0188 16.5116 18.8399 16.1097 18.4988 15.772L16.6449 13.9114ZM17.8538 17.4673C17.8504 17.4673 17.8504 17.4706 17.8538 17.4673C17.7221 17.6091 17.587 17.7374 17.4418 17.8792C17.2223 18.0886 16.9995 18.3081 16.7901 18.5546C16.449 18.9193 16.0472 19.0915 15.5204 19.0915C15.4697 19.0915 15.4157 19.0915 15.365 19.0882C14.3621 19.024 13.4301 18.6323 12.731 18.298C10.8197 17.3727 9.14139 16.0591 7.74672 14.3943C6.5952 13.0064 5.82526 11.7231 5.31535 10.3454C5.0013 9.5045 4.88648 8.84938 4.93714 8.23141C4.9709 7.83631 5.12287 7.50875 5.40315 7.22847L6.55468 6.07694C6.72014 5.9216 6.89574 5.83718 7.06797 5.83718C7.28071 5.83718 7.45293 5.9655 7.56099 6.07356C7.56437 6.07694 7.56775 6.08032 7.57113 6.0837C7.77712 6.27618 7.97298 6.47542 8.17897 6.68816C8.28365 6.79622 8.39171 6.90428 8.49978 7.01572L9.42167 7.93762C9.77962 8.29557 9.77962 8.62651 9.42167 8.98446C9.32374 9.08239 9.22919 9.18032 9.13126 9.27487C8.8476 9.56529 8.57744 9.83544 8.28365 10.0988C8.2769 10.1056 8.27015 10.109 8.26677 10.1157C7.97635 10.4061 8.03039 10.6898 8.09117 10.8823C8.09455 10.8924 8.09792 10.9025 8.1013 10.9127C8.34106 11.4935 8.67875 12.0406 9.19204 12.6923L9.19542 12.6957C10.1274 13.8438 11.1101 14.7387 12.1941 15.4242C12.3326 15.512 12.4744 15.5829 12.6095 15.6505C12.731 15.7113 12.8459 15.7687 12.9438 15.8295C12.9573 15.8362 12.9708 15.8463 12.9843 15.8531C13.0991 15.9105 13.2072 15.9375 13.3186 15.9375C13.5989 15.9375 13.7745 15.7619 13.8319 15.7045L14.9868 14.5496C15.1016 14.4348 15.284 14.2963 15.4967 14.2963C15.7061 14.2963 15.8783 14.428 15.983 14.5429C15.9864 14.5462 15.9864 14.5462 15.9898 14.5496L17.8504 16.4103C18.1983 16.7547 18.1983 17.1093 17.8538 17.4673Z" fill="#ECBF61"/>
<path d="M12.6467 7.80597C13.5315 7.95456 14.3352 8.37329 14.9768 9.01491C15.6184 9.65652 16.0337 10.4602 16.1857 11.345C16.2229 11.5678 16.4153 11.7232 16.6348 11.7232C16.6619 11.7232 16.6855 11.7198 16.7125 11.7164C16.9624 11.6759 17.1279 11.4395 17.0873 11.1896C16.905 10.1192 16.3985 9.14323 15.6251 8.36992C14.8518 7.5966 13.8759 7.09007 12.8054 6.90771C12.5555 6.86719 12.3225 7.03266 12.2786 7.27917C12.2347 7.52569 12.3968 7.76545 12.6467 7.80597Z" fill="#ECBF61"/>
<path d="M19.9814 11.0579C19.6808 9.29519 18.8501 7.69116 17.5736 6.41469C16.2972 5.13821 14.6931 4.3075 12.9304 4.00695C12.6839 3.96305 12.4509 4.1319 12.407 4.37841C12.3665 4.6283 12.5319 4.86131 12.7818 4.90521C14.3555 5.17198 15.7906 5.91828 16.932 7.0563C18.0734 8.1977 18.8163 9.63288 19.0831 11.2065C19.1203 11.4294 19.3128 11.5847 19.5323 11.5847C19.5593 11.5847 19.5829 11.5814 19.6099 11.578C19.8564 11.5408 20.0253 11.3045 19.9814 11.0579Z" fill="#ECBF61"/>
</svg>
